<?xml version="1.0" encoding="iso-8859-1"?>
<!-- Generator: Adobe Illustrator 19.0.0, SVG Export Plug-In . SVG Version: 6.00 Build 0)  -->
<svg xmlns="http://www.w3.org/2000/svg" xmlns:xlink="http://www.w3.org/1999/xlink" version="1.1" id="Layer_1" x="0px" y="0px" viewBox="0 0 455 455" style="enable-background:new 0 0 455 455;" xml:space="preserve" width="512px" height="512px">
<g>
	<path d="M297.5,212.5c-8.271,0-15,6.729-15,15s6.729,15,15,15s15-6.729,15-15S305.771,212.5,297.5,212.5z" fill="#db9f5a"/>
	<polygon points="55,98.788 18.344,98.788 18.344,128.788 55,128.788 55,212.5 15,212.5 15,242.5 55,242.5 55,326.212 15,326.212    15,356.212 55,356.212 55,455 125,455 125,0 55,0  " fill="#db9f5a"/>
	<path d="M155,0v455h285V0H155z M357.5,277.985c-12.009,0-23.193-4.807-31.494-13.534c-0.379-0.399-0.763-0.818-1.149-1.256   c-7.587,5.829-17.071,9.305-27.357,9.305c-24.813,0-45-20.187-45-45s20.187-45,45-45s45,20.187,45,45   c0,15.12,8.081,20.485,15,20.485s15-5.365,15-20.485c0-41.355-33.645-75-75-75s-75,33.645-75,75s33.645,75,75,75   c10.131,0,19.952-1.981,29.189-5.888l11.687,27.63c-12.955,5.479-26.708,8.258-40.875,8.258c-57.897,0-105-47.103-105-105   s47.103-105,105-105s105,47.103,105,105C402.5,260.644,379.862,277.985,357.5,277.985z" fill="#db9f5a"/>
</g>
<g>
</g>
<g>
</g>
<g>
</g>
<g>
</g>
<g>
</g>
<g>
</g>
<g>
</g>
<g>
</g>
<g>
</g>
<g>
</g>
<g>
</g>
<g>
</g>
<g>
</g>
<g>
</g>
<g>
</g>
</svg>
