<?xml version="1.0" encoding="iso-8859-1"?>
<!-- Generator: Adobe Illustrator 16.0.0, SVG Export Plug-In . SVG Version: 6.00 Build 0)  -->
<!DOCTYPE svg PUBLIC "-//W3C//DTD SVG 1.1//EN" "http://www.w3.org/Graphics/SVG/1.1/DTD/svg11.dtd">
<svg xmlns="http://www.w3.org/2000/svg" xmlns:xlink="http://www.w3.org/1999/xlink" version="1.1" id="Capa_1" x="0px" y="0px" width="512px" height="512px" viewBox="0 0 288.937 288.938" style="enable-background:new 0 0 288.937 288.938;" xml:space="preserve">
<g>
	<g>
		<path d="M207.967,272.338c-22.815,12.03-46.076,16.6-73.897,16.6c-68.084,0-125.788-49.793-125.788-129.508    C8.283,73.9,67.641,0,159.833,0c72.241,0,120.822,50.642,120.822,119.973c0,62.272-34.88,98.811-73.899,98.811    c-16.634,0-31.976-11.219-30.729-36.538h-1.658c-14.535,24.507-33.636,36.538-58.549,36.538c-24.07,0-44.826-19.533-44.826-52.325    c0-51.485,40.669-98.373,98.373-98.373c17.846,0,33.639,3.717,44.418,8.723l-14.096,75.12    c-6.221,31.575-1.258,46.11,12.443,46.511c21.19,0.406,44.857-27.824,44.857-75.993c0-60.176-36.138-103.381-100.506-103.381    c-67.644,0-124.538,53.58-124.538,137.861c0,69.337,45.267,112.096,106.687,112.096c23.667,0,45.676-4.997,62.71-14.535    L207.967,272.338z M185.146,92.964c-4.156-1.218-11.224-2.876-20.762-2.876c-36.538,0-66.02,34.448-66.02,74.717    c0,18.286,9.129,31.575,27.415,31.575c24.07,0,46.073-30.729,50.642-56.494L185.146,92.964z" fill="#91DC5A"/>
	</g>
</g>
<g>
</g>
<g>
</g>
<g>
</g>
<g>
</g>
<g>
</g>
<g>
</g>
<g>
</g>
<g>
</g>
<g>
</g>
<g>
</g>
<g>
</g>
<g>
</g>
<g>
</g>
<g>
</g>
<g>
</g>
</svg>
